<mxfile host="app.diagrams.net" modified="2022-02-07T03:45:06.690Z" agent="5.0 (Macintosh; Intel Mac OS X 10_15_7) AppleWebKit/537.36 (KHTML, like Gecko) Chrome/98.0.4758.80 Safari/537.36" etag="lo8lajamBVvq8IiwabdP" version="16.5.3" type="github">
  <diagram id="C5RBs43oDa-KdzZeNtuy" name="Page-1">
    <mxGraphModel dx="1109" dy="693" grid="1" gridSize="10" guides="1" tooltips="1" connect="1" arrows="1" fold="1" page="1" pageScale="1" pageWidth="827" pageHeight="1169" math="0" shadow="0">
      <root>
        <mxCell id="WIyWlLk6GJQsqaUBKTNV-0" />
        <mxCell id="WIyWlLk6GJQsqaUBKTNV-1" parent="WIyWlLk6GJQsqaUBKTNV-0" />
        <mxCell id="55pixW0FuWTkoJQPLTO4-22" value="" style="edgeStyle=orthogonalEdgeStyle;rounded=0;orthogonalLoop=1;jettySize=auto;html=1;entryX=0.5;entryY=0;entryDx=0;entryDy=0;" edge="1" parent="WIyWlLk6GJQsqaUBKTNV-1" source="55pixW0FuWTkoJQPLTO4-23">
          <mxGeometry relative="1" as="geometry">
            <mxPoint x="385" y="330" as="targetPoint" />
          </mxGeometry>
        </mxCell>
        <mxCell id="55pixW0FuWTkoJQPLTO4-23" value="input block Info&lt;br&gt;(row, column, color)" style="rounded=1;whiteSpace=wrap;html=1;" vertex="1" parent="WIyWlLk6GJQsqaUBKTNV-1">
          <mxGeometry x="325" y="240" width="120" height="50" as="geometry" />
        </mxCell>
        <mxCell id="55pixW0FuWTkoJQPLTO4-25" value="No" style="edgeStyle=orthogonalEdgeStyle;rounded=0;orthogonalLoop=1;jettySize=auto;html=1;entryX=0.5;entryY=1;entryDx=0;entryDy=0;exitX=1;exitY=0.5;exitDx=0;exitDy=0;" edge="1" parent="WIyWlLk6GJQsqaUBKTNV-1" source="55pixW0FuWTkoJQPLTO4-66" target="55pixW0FuWTkoJQPLTO4-28">
          <mxGeometry x="-0.7144" y="20" relative="1" as="geometry">
            <mxPoint as="offset" />
            <mxPoint x="465" y="370" as="sourcePoint" />
            <mxPoint x="585" y="300" as="targetPoint" />
          </mxGeometry>
        </mxCell>
        <mxCell id="55pixW0FuWTkoJQPLTO4-55" value="" style="edgeStyle=orthogonalEdgeStyle;rounded=0;orthogonalLoop=1;jettySize=auto;html=1;fontSize=11;" edge="1" parent="WIyWlLk6GJQsqaUBKTNV-1" source="55pixW0FuWTkoJQPLTO4-27" target="55pixW0FuWTkoJQPLTO4-54">
          <mxGeometry relative="1" as="geometry" />
        </mxCell>
        <mxCell id="55pixW0FuWTkoJQPLTO4-27" value="Set the new block" style="rounded=1;whiteSpace=wrap;html=1;" vertex="1" parent="WIyWlLk6GJQsqaUBKTNV-1">
          <mxGeometry x="325" y="440" width="120" height="40" as="geometry" />
        </mxCell>
        <mxCell id="55pixW0FuWTkoJQPLTO4-34" style="edgeStyle=orthogonalEdgeStyle;rounded=0;orthogonalLoop=1;jettySize=auto;html=1;fontSize=11;" edge="1" parent="WIyWlLk6GJQsqaUBKTNV-1" source="55pixW0FuWTkoJQPLTO4-28">
          <mxGeometry relative="1" as="geometry">
            <mxPoint x="385" y="210" as="targetPoint" />
            <Array as="points">
              <mxPoint x="585" y="210" />
            </Array>
          </mxGeometry>
        </mxCell>
        <mxCell id="55pixW0FuWTkoJQPLTO4-28" value="display the board" style="rounded=1;whiteSpace=wrap;html=1;" vertex="1" parent="WIyWlLk6GJQsqaUBKTNV-1">
          <mxGeometry x="525" y="260" width="120" height="50" as="geometry" />
        </mxCell>
        <mxCell id="55pixW0FuWTkoJQPLTO4-29" style="edgeStyle=orthogonalEdgeStyle;rounded=0;orthogonalLoop=1;jettySize=auto;html=1;exitX=0.5;exitY=1;exitDx=0;exitDy=0;fontSize=11;" edge="1" parent="WIyWlLk6GJQsqaUBKTNV-1">
          <mxGeometry relative="1" as="geometry">
            <mxPoint x="385" y="410" as="sourcePoint" />
            <mxPoint x="385" y="410" as="targetPoint" />
          </mxGeometry>
        </mxCell>
        <mxCell id="55pixW0FuWTkoJQPLTO4-35" value="" style="edgeStyle=orthogonalEdgeStyle;rounded=0;orthogonalLoop=1;jettySize=auto;html=1;fontSize=11;" edge="1" parent="WIyWlLk6GJQsqaUBKTNV-1" source="55pixW0FuWTkoJQPLTO4-32" target="55pixW0FuWTkoJQPLTO4-23">
          <mxGeometry relative="1" as="geometry" />
        </mxCell>
        <mxCell id="55pixW0FuWTkoJQPLTO4-32" value="" style="verticalLabelPosition=bottom;verticalAlign=top;html=1;shape=mxgraph.flowchart.on-page_reference;fontSize=11;" vertex="1" parent="WIyWlLk6GJQsqaUBKTNV-1">
          <mxGeometry x="370" y="160" width="30" height="30" as="geometry" />
        </mxCell>
        <mxCell id="55pixW0FuWTkoJQPLTO4-57" value="" style="edgeStyle=orthogonalEdgeStyle;rounded=0;orthogonalLoop=1;jettySize=auto;html=1;fontSize=11;" edge="1" parent="WIyWlLk6GJQsqaUBKTNV-1" source="55pixW0FuWTkoJQPLTO4-54" target="55pixW0FuWTkoJQPLTO4-64">
          <mxGeometry relative="1" as="geometry">
            <mxPoint x="385.03703703703695" y="580" as="targetPoint" />
          </mxGeometry>
        </mxCell>
        <mxCell id="55pixW0FuWTkoJQPLTO4-54" value="calculate the block&#39;s score" style="whiteSpace=wrap;html=1;rounded=1;" vertex="1" parent="WIyWlLk6GJQsqaUBKTNV-1">
          <mxGeometry x="325" y="510" width="120" height="40" as="geometry" />
        </mxCell>
        <mxCell id="55pixW0FuWTkoJQPLTO4-71" value="Yes" style="edgeStyle=orthogonalEdgeStyle;rounded=0;orthogonalLoop=1;jettySize=auto;html=1;fontSize=11;entryX=0.5;entryY=0;entryDx=0;entryDy=0;" edge="1" parent="WIyWlLk6GJQsqaUBKTNV-1" source="55pixW0FuWTkoJQPLTO4-64" target="55pixW0FuWTkoJQPLTO4-75">
          <mxGeometry x="-0.6" y="20" relative="1" as="geometry">
            <mxPoint x="385" y="720" as="targetPoint" />
            <mxPoint as="offset" />
          </mxGeometry>
        </mxCell>
        <mxCell id="55pixW0FuWTkoJQPLTO4-74" value="" style="edgeStyle=orthogonalEdgeStyle;rounded=0;orthogonalLoop=1;jettySize=auto;html=1;fontSize=11;" edge="1" parent="WIyWlLk6GJQsqaUBKTNV-1" source="55pixW0FuWTkoJQPLTO4-64">
          <mxGeometry relative="1" as="geometry">
            <mxPoint x="585" y="310" as="targetPoint" />
          </mxGeometry>
        </mxCell>
        <mxCell id="55pixW0FuWTkoJQPLTO4-64" value="check if game end?" style="rhombus;whiteSpace=wrap;html=1;rounded=1;" vertex="1" parent="WIyWlLk6GJQsqaUBKTNV-1">
          <mxGeometry x="310" y="590" width="150" height="80" as="geometry" />
        </mxCell>
        <mxCell id="55pixW0FuWTkoJQPLTO4-69" value="Yes" style="edgeStyle=orthogonalEdgeStyle;rounded=0;orthogonalLoop=1;jettySize=auto;html=1;entryX=0.5;entryY=0;entryDx=0;entryDy=0;fontSize=11;" edge="1" parent="WIyWlLk6GJQsqaUBKTNV-1" source="55pixW0FuWTkoJQPLTO4-66" target="55pixW0FuWTkoJQPLTO4-27">
          <mxGeometry x="0.2003" y="20" relative="1" as="geometry">
            <mxPoint as="offset" />
          </mxGeometry>
        </mxCell>
        <mxCell id="55pixW0FuWTkoJQPLTO4-66" value="&lt;span&gt;check if the block&lt;/span&gt;&lt;br&gt;&lt;span&gt;can be set?&lt;/span&gt;" style="rhombus;whiteSpace=wrap;html=1;rounded=1;" vertex="1" parent="WIyWlLk6GJQsqaUBKTNV-1">
          <mxGeometry x="310" y="330" width="150" height="80" as="geometry" />
        </mxCell>
        <mxCell id="55pixW0FuWTkoJQPLTO4-72" value="" style="ellipse;shape=doubleEllipse;whiteSpace=wrap;html=1;aspect=fixed;fontSize=11;" vertex="1" parent="WIyWlLk6GJQsqaUBKTNV-1">
          <mxGeometry x="370" y="890" width="30" height="30" as="geometry" />
        </mxCell>
        <mxCell id="55pixW0FuWTkoJQPLTO4-77" value="" style="edgeStyle=orthogonalEdgeStyle;rounded=0;orthogonalLoop=1;jettySize=auto;html=1;fontSize=11;" edge="1" parent="WIyWlLk6GJQsqaUBKTNV-1" source="55pixW0FuWTkoJQPLTO4-75" target="55pixW0FuWTkoJQPLTO4-76">
          <mxGeometry relative="1" as="geometry" />
        </mxCell>
        <mxCell id="55pixW0FuWTkoJQPLTO4-75" value="calculate bouns score" style="whiteSpace=wrap;html=1;rounded=1;" vertex="1" parent="WIyWlLk6GJQsqaUBKTNV-1">
          <mxGeometry x="315" y="730" width="140" height="40" as="geometry" />
        </mxCell>
        <mxCell id="55pixW0FuWTkoJQPLTO4-78" value="" style="edgeStyle=orthogonalEdgeStyle;rounded=0;orthogonalLoop=1;jettySize=auto;html=1;fontSize=11;" edge="1" parent="WIyWlLk6GJQsqaUBKTNV-1" source="55pixW0FuWTkoJQPLTO4-76" target="55pixW0FuWTkoJQPLTO4-72">
          <mxGeometry relative="1" as="geometry" />
        </mxCell>
        <mxCell id="55pixW0FuWTkoJQPLTO4-76" value="display the board" style="rounded=1;whiteSpace=wrap;html=1;" vertex="1" parent="WIyWlLk6GJQsqaUBKTNV-1">
          <mxGeometry x="325" y="810" width="120" height="50" as="geometry" />
        </mxCell>
      </root>
    </mxGraphModel>
  </diagram>
</mxfile>
